<svg width="26" height="26" viewBox="0 0 26 26" fill="none" xmlns="http://www.w3.org/2000/svg">
<path fill-rule="evenodd" clip-rule="evenodd" d="M26 13C26 20.1797 20.1797 26 13 26C5.8203 26 0 20.1797 0 13C0 5.8203 5.8203 0 13 0C20.1797 0 26 5.8203 26 13ZM8.70542 11.8091C7.40315 12.3777 6.06509 12.962 4.84155 13.6359L4.84147 13.636C4.20258 14.1038 5.05179 14.4346 5.84841 14.745C5.97505 14.7943 6.10037 14.8431 6.21817 14.8919C6.31619 14.922 6.41588 14.9538 6.51689 14.986C7.40288 15.2682 8.39082 15.583 9.25096 15.1095C10.6639 14.2978 11.9974 13.3594 13.3298 12.4218C13.7663 12.1145 14.2028 11.8074 14.6418 11.5048C14.6624 11.4917 14.6856 11.4766 14.711 11.4602C15.0851 11.2177 15.9263 10.6724 15.6151 11.4238C14.8793 12.2285 14.0911 12.9408 13.2987 13.657C12.7646 14.1397 12.2286 14.6242 11.7054 15.1398C11.2496 15.5101 10.7764 16.2548 11.2867 16.7733C12.4621 17.5961 13.6558 18.399 14.8488 19.2013C15.237 19.4625 15.6252 19.7236 16.0127 19.9853C16.6693 20.5095 17.6954 20.0855 17.8398 19.2663C17.904 18.8894 17.9685 18.5126 18.0329 18.1357C18.3891 16.0532 18.7454 13.97 19.0602 11.8806C19.103 11.5529 19.1515 11.2252 19.2 10.8973C19.3176 10.1026 19.4353 9.30696 19.4721 8.508C19.3773 7.7107 18.4106 7.886 17.8725 8.06529C15.1072 9.11753 12.3695 10.2478 9.64267 11.3979C9.33377 11.5348 9.02064 11.6715 8.70542 11.8091Z" fill="#424A52"/>
</svg>
