<svg width="45" height="44" viewBox="0 0 45 44" fill="none" xmlns="http://www.w3.org/2000/svg">
<path fill-rule="evenodd" clip-rule="evenodd" d="M44.2891 22C44.2891 34.1503 34.4393 44 22.2891 44C10.1388 44 0.289062 34.1503 0.289062 22C0.289062 9.84974 10.1388 0 22.2891 0C34.4393 0 44.2891 9.84974 44.2891 22ZM15.0213 19.9847C12.8175 20.9469 10.5531 21.9356 8.48246 23.0761L8.48231 23.0763C7.40112 23.8679 8.83824 24.4278 10.1864 24.953C10.4007 25.0365 10.6128 25.1191 10.8121 25.2017C10.978 25.2527 11.1467 25.3064 11.3177 25.3609C12.817 25.8386 14.4889 26.3712 15.9445 25.57C18.3357 24.1964 20.5923 22.6083 22.8472 21.0214C23.5859 20.5015 24.3245 19.9818 25.0676 19.4697C25.1024 19.4474 25.1417 19.422 25.1846 19.3941C25.8176 18.9838 27.2412 18.061 26.7147 19.3326C25.4694 20.6944 24.1356 21.8998 22.7945 23.1119C21.8908 23.9288 20.9837 24.7486 20.0982 25.6213C19.3269 26.2479 18.5261 27.5081 19.3897 28.3856C21.3788 29.7781 23.399 31.1368 25.418 32.4947C26.075 32.9366 26.7318 33.3784 27.3874 33.8212C28.4986 34.7084 30.2352 33.9908 30.4795 32.6044C30.5882 31.9667 30.6972 31.329 30.8063 30.6913C31.4091 27.167 32.0121 23.6415 32.5448 20.1057C32.6171 19.5511 32.6992 18.9965 32.7813 18.4416C32.9803 17.0967 33.1796 15.7503 33.2418 14.3982C33.0814 13.0489 31.4454 13.3455 30.5349 13.6489C25.8551 15.4297 21.2221 17.3424 16.6074 19.2888C16.0847 19.5204 15.5548 19.7518 15.0213 19.9847Z" fill="#ECEDED"/>
</svg>
