<svg width="26" height="26" viewBox="0 0 26 26" fill="none" xmlns="http://www.w3.org/2000/svg">
<path fill-rule="evenodd" clip-rule="evenodd" d="M13 26C20.1797 26 26 20.1797 26 13C26 5.8203 20.1797 0 13 0C5.8203 0 0 5.8203 0 13C0 20.1797 5.8203 26 13 26ZM20.6611 8.20274C21.2299 8.20274 21.3584 8.49631 21.2299 8.89998C21.0295 9.82512 19.3649 12.2792 18.8493 13.0393C18.782 13.1385 18.6134 13.3964 18.5651 13.5061C18.482 13.6946 18.4982 13.8449 18.6978 14.111C18.7973 14.2467 19.0083 14.4537 19.2494 14.6903C19.4974 14.9337 19.7773 15.2083 20.0006 15.4688C20.8079 16.3862 21.4318 17.1569 21.5969 17.689C21.7437 18.2211 21.4868 18.4963 20.9364 18.4963H19.0464C18.5456 18.4963 18.2874 18.2087 17.7372 17.5957C17.5013 17.3329 17.2117 17.0102 16.8263 16.6248C15.707 15.5422 15.2116 15.3954 14.9364 15.3954C14.551 15.3954 14.4409 15.4871 14.4409 16.0376V17.744C14.4409 18.2027 14.2942 18.478 13.0831 18.478C11.0831 18.478 8.86296 17.267 7.30333 15.0101C4.9547 11.7073 4.3125 9.21191 4.3125 8.7165C4.3125 8.44127 4.40424 8.18439 4.9547 8.18439H6.86296C7.34002 8.18439 7.52351 8.38622 7.707 8.91833C8.64277 11.6156 10.2024 13.9826 10.8446 13.9826C11.0831 13.9826 11.1932 13.8725 11.1932 13.267V10.478C11.1479 9.68522 10.872 9.33983 10.6673 9.0837C10.5404 8.92486 10.4409 8.80035 10.4409 8.62475C10.4409 8.40457 10.6244 8.18439 10.918 8.18439H13.8905C14.2942 8.18439 14.4409 8.40457 14.4409 8.88163V12.6431C14.4409 13.0468 14.6061 13.1936 14.7345 13.1936C14.9731 13.1936 15.1749 13.0468 15.6153 12.6064C16.4217 11.7019 17.0922 10.5061 17.5038 9.68407C17.8163 9.05991 18.0732 8.20274 18.7712 8.20274H20.6611Z" fill="#424A52"/>
</svg>
