<svg width="45" height="44" viewBox="0 0 45 44" fill="none" xmlns="http://www.w3.org/2000/svg">
<path fill-rule="evenodd" clip-rule="evenodd" d="M22.6719 44C34.8221 44 44.6719 34.1503 44.6719 22C44.6719 9.84974 34.8221 0 22.6719 0C10.5216 0 0.671875 9.84974 0.671875 22C0.671875 34.1503 10.5216 44 22.6719 44ZM35.6357 13.8816C36.5982 13.8816 36.8156 14.3785 36.5982 15.0616C36.259 16.6272 33.4421 20.7802 32.5695 22.0665C32.4557 22.2344 32.1703 22.671 32.0885 22.8566C31.9479 23.1755 31.9754 23.4299 32.3131 23.8802C32.4815 24.1098 32.8386 24.4602 33.2466 24.8606C33.6663 25.2724 34.1399 25.7372 34.5178 26.178C35.8841 27.7306 36.9398 29.0348 37.2193 29.9353C37.4677 30.8358 37.033 31.3015 36.1014 31.3015H32.9031C32.0555 31.3015 31.6186 30.8148 30.6875 29.7774C30.2883 29.3326 29.7982 28.7866 29.1459 28.1343C27.2517 26.3022 26.4134 26.0538 25.9476 26.0538C25.2955 26.0538 25.1092 26.2091 25.1092 27.1406V30.0284C25.1092 30.8047 24.8608 31.2705 22.8114 31.2705C19.4268 31.2705 15.6695 29.2211 13.0301 25.4018C9.05555 19.8125 7.96875 15.5895 7.96875 14.7511C7.96875 14.2853 8.12401 13.8506 9.05555 13.8506H12.2849C13.0922 13.8506 13.4028 14.1922 13.7133 15.0926C15.2969 19.6572 17.9363 23.6629 19.0231 23.6629C19.4268 23.6629 19.6131 23.4766 19.6131 22.4519V17.732C19.5364 16.3905 19.0694 15.8059 18.7231 15.3725C18.5083 15.1037 18.34 14.893 18.34 14.5958C18.34 14.2232 18.6505 13.8506 19.1473 13.8506H24.1776C24.8608 13.8506 25.1092 14.2232 25.1092 15.0305V21.3961C25.1092 22.0792 25.3887 22.3277 25.606 22.3277C26.0097 22.3277 26.3512 22.0792 27.0965 21.334C28.6003 19.6473 29.8248 17.3621 30.4915 15.9842C30.8753 15.1911 31.1369 14.1498 31.991 13.9335C32.123 13.9001 32.2709 13.8816 32.4373 13.8816H35.6357Z" fill="#ECEDED"/>
</svg>
